<svg height='100px' width='100px'  fill="#242424" xmlns="http://www.w3.org/2000/svg" xmlns:xlink="http://www.w3.org/1999/xlink" xmlns:serif="http://www.serif.com/" viewBox="0 0 64 64" version="1.1" xml:space="preserve" style="" x="0px" y="0px" fill-rule="evenodd" clip-rule="evenodd" stroke-linejoin="round" stroke-miterlimit="2"><rect x="-0" y="0" width="64" height="64" style="" fill="none"></rect><path d="M8.641,13.067c-0.386,0.148 -0.641,0.519 -0.641,0.933l-0,41c-0,0.329 0.162,0.638 0.434,0.824c0.271,0.187 0.617,0.228 0.925,0.109l13,-5c0.386,-0.148 0.641,-0.519 0.641,-0.933l-0,-41c0,-0.329 -0.162,-0.638 -0.434,-0.824c-0.271,-0.187 -0.617,-0.228 -0.925,-0.109l-13,5Zm1.359,1.62l-0,38.857l11,-4.231l0,-38.857l-11,4.231Z"></path><path d="M43,14c0,-0.459 -0.312,-0.859 -0.757,-0.97l-20,-5c-0.299,-0.075 -0.616,-0.008 -0.858,0.182c-0.243,0.189 -0.385,0.48 -0.385,0.788l0,41c0,0.459 0.312,0.859 0.757,0.97l20,5c0.299,0.075 0.616,0.008 0.858,-0.182c0.243,-0.189 0.385,-0.48 0.385,-0.788l0,-41Zm-20,35.219l18,4.5l0,-38.938l-18,-4.5l0,38.938Z"></path><path d="M41.641,13.067c-0.386,0.148 -0.641,0.519 -0.641,0.933l-0,41c-0,0.329 0.162,0.638 0.434,0.824c0.271,0.187 0.617,0.228 0.925,0.109l13,-5c0.386,-0.148 0.641,-0.519 0.641,-0.933l-0,-41c-0,-0.329 -0.162,-0.638 -0.434,-0.824c-0.271,-0.187 -0.617,-0.228 -0.925,-0.109l-13,5Zm1.359,1.62l-0,38.857l11,-4.231l-0,-38.857l-11,4.231Z"></path></svg>