<svg height='100px' width='100px'  fill="#242424" xmlns="http://www.w3.org/2000/svg" xmlns:xlink="http://www.w3.org/1999/xlink" viewBox="0 0 13 12" version="1.1" x="0px" y="0px"><title>expand-context-app-tray</title><desc>Created with Sketch.</desc><g stroke="none" stroke-width="1" fill="none" fill-rule="evenodd"><path d="M1.00025,12.00025 C0.74425,12.00025 0.48825,11.90225 0.29325,11.70725 C-0.09775,11.31625 -0.09775,10.68425 0.29325,10.29325 L4.58625,6.00025 L0.29325,1.70725 C-0.09775,1.31625 -0.09775,0.68425 0.29325,0.29325 C0.68425,-0.09775 1.31625,-0.09775 1.70725,0.29325 L6.70725,5.29325 C7.09825,5.68425 7.09825,6.31625 6.70725,6.70725 L1.70725,11.70725 C1.51225,11.90225 1.25625,12.00025 1.00025,12.00025 M7.00025,12.00025 C6.74425,12.00025 6.48825,11.90225 6.29325,11.70725 C5.90225,11.31625 5.90225,10.68425 6.29325,10.29325 L10.58625,6.00025 L6.29325,1.70725 C5.90225,1.31625 5.90225,0.68425 6.29325,0.29325 C6.68425,-0.09775 7.31625,-0.09775 7.70725,0.29325 L12.70725,5.29325 C13.09825,5.68425 13.09825,6.31625 12.70725,6.70725 L7.70725,11.70725 C7.51225,11.90225 7.25625,12.00025 7.00025,12.00025" fill="#242424"></path></g></svg>